<mxfile host="app.diagrams.net" modified="2023-03-18T20:21:35.168Z" agent="5.0 (Windows NT 10.0; Win64; x64) AppleWebKit/537.36 (KHTML, like Gecko) Chrome/111.0.0.0 Safari/537.36" etag="T8-fpxPe84FQtVm08zj0" version="21.0.8" type="github">
  <diagram name="Page-1" id="baoJ7xjOdm-c9Dz51_yK">
    <mxGraphModel dx="2294" dy="1793" grid="1" gridSize="10" guides="1" tooltips="1" connect="1" arrows="1" fold="1" page="1" pageScale="1" pageWidth="850" pageHeight="1100" math="0" shadow="0">
      <root>
        <mxCell id="0" />
        <mxCell id="1" parent="0" />
        <mxCell id="m3oFk083VExMzyAJb2_2-45" style="edgeStyle=orthogonalEdgeStyle;rounded=0;orthogonalLoop=1;jettySize=auto;html=1;entryX=0.5;entryY=0;entryDx=0;entryDy=0;" edge="1" parent="1" source="m3oFk083VExMzyAJb2_2-2" target="m3oFk083VExMzyAJb2_2-4">
          <mxGeometry relative="1" as="geometry" />
        </mxCell>
        <mxCell id="m3oFk083VExMzyAJb2_2-2" value="Online Shopping Master module" style="ellipse;whiteSpace=wrap;html=1;aspect=fixed;" vertex="1" parent="1">
          <mxGeometry x="160" y="120" width="80" height="80" as="geometry" />
        </mxCell>
        <mxCell id="m3oFk083VExMzyAJb2_2-52" style="edgeStyle=orthogonalEdgeStyle;rounded=0;orthogonalLoop=1;jettySize=auto;html=1;exitX=1;exitY=0;exitDx=0;exitDy=0;" edge="1" parent="1" source="m3oFk083VExMzyAJb2_2-3">
          <mxGeometry relative="1" as="geometry">
            <mxPoint x="560" y="57.33333333333337" as="targetPoint" />
          </mxGeometry>
        </mxCell>
        <mxCell id="m3oFk083VExMzyAJb2_2-3" value="Customer &amp;amp; Security Management module" style="ellipse;whiteSpace=wrap;html=1;aspect=fixed;" vertex="1" parent="1">
          <mxGeometry x="360" y="45" width="80" height="80" as="geometry" />
        </mxCell>
        <mxCell id="m3oFk083VExMzyAJb2_2-19" style="edgeStyle=orthogonalEdgeStyle;rounded=0;orthogonalLoop=1;jettySize=auto;html=1;exitX=1;exitY=0.5;exitDx=0;exitDy=0;entryX=0;entryY=0;entryDx=0;entryDy=0;" edge="1" parent="1" source="m3oFk083VExMzyAJb2_2-4" target="m3oFk083VExMzyAJb2_2-5">
          <mxGeometry relative="1" as="geometry" />
        </mxCell>
        <mxCell id="m3oFk083VExMzyAJb2_2-30" style="edgeStyle=orthogonalEdgeStyle;rounded=0;orthogonalLoop=1;jettySize=auto;html=1;exitX=1;exitY=0;exitDx=0;exitDy=0;" edge="1" parent="1" source="m3oFk083VExMzyAJb2_2-4" target="m3oFk083VExMzyAJb2_2-6">
          <mxGeometry relative="1" as="geometry" />
        </mxCell>
        <mxCell id="m3oFk083VExMzyAJb2_2-4" value="Order Processing Module" style="ellipse;whiteSpace=wrap;html=1;aspect=fixed;" vertex="1" parent="1">
          <mxGeometry x="210" y="270" width="80" height="80" as="geometry" />
        </mxCell>
        <mxCell id="m3oFk083VExMzyAJb2_2-5" value="Shopping Report Module" style="ellipse;whiteSpace=wrap;html=1;aspect=fixed;" vertex="1" parent="1">
          <mxGeometry x="385" y="370" width="80" height="80" as="geometry" />
        </mxCell>
        <mxCell id="m3oFk083VExMzyAJb2_2-29" style="edgeStyle=orthogonalEdgeStyle;rounded=0;orthogonalLoop=1;jettySize=auto;html=1;exitX=0.5;exitY=1;exitDx=0;exitDy=0;entryX=0.5;entryY=0;entryDx=0;entryDy=0;" edge="1" parent="1" source="m3oFk083VExMzyAJb2_2-6" target="m3oFk083VExMzyAJb2_2-5">
          <mxGeometry relative="1" as="geometry" />
        </mxCell>
        <mxCell id="m3oFk083VExMzyAJb2_2-36" style="edgeStyle=orthogonalEdgeStyle;rounded=0;orthogonalLoop=1;jettySize=auto;html=1;" edge="1" parent="1" source="m3oFk083VExMzyAJb2_2-6">
          <mxGeometry relative="1" as="geometry">
            <mxPoint x="710" y="230" as="targetPoint" />
          </mxGeometry>
        </mxCell>
        <mxCell id="m3oFk083VExMzyAJb2_2-6" value="Order Tracking Module" style="ellipse;whiteSpace=wrap;html=1;aspect=fixed;" vertex="1" parent="1">
          <mxGeometry x="520" y="190" width="80" height="80" as="geometry" />
        </mxCell>
        <mxCell id="m3oFk083VExMzyAJb2_2-7" value="" style="endArrow=classic;startArrow=classic;html=1;rounded=0;" edge="1" parent="1">
          <mxGeometry width="50" height="50" relative="1" as="geometry">
            <mxPoint x="200" y="120" as="sourcePoint" />
            <mxPoint x="180" y="70" as="targetPoint" />
          </mxGeometry>
        </mxCell>
        <mxCell id="m3oFk083VExMzyAJb2_2-8" value="Online Shopping Database" style="text;html=1;align=center;verticalAlign=middle;resizable=0;points=[];autosize=1;strokeColor=none;fillColor=none;" vertex="1" parent="1">
          <mxGeometry x="95" y="45" width="170" height="30" as="geometry" />
        </mxCell>
        <mxCell id="m3oFk083VExMzyAJb2_2-11" value="" style="endArrow=classic;html=1;rounded=0;entryX=0;entryY=0.625;entryDx=0;entryDy=0;entryPerimeter=0;" edge="1" parent="1" target="m3oFk083VExMzyAJb2_2-2">
          <mxGeometry width="50" height="50" relative="1" as="geometry">
            <mxPoint x="80" y="170" as="sourcePoint" />
            <mxPoint x="150" y="120" as="targetPoint" />
          </mxGeometry>
        </mxCell>
        <mxCell id="m3oFk083VExMzyAJb2_2-12" value="" style="endArrow=classic;html=1;rounded=0;entryX=0;entryY=0.625;entryDx=0;entryDy=0;entryPerimeter=0;" edge="1" parent="1">
          <mxGeometry width="50" height="50" relative="1" as="geometry">
            <mxPoint x="80" y="150" as="sourcePoint" />
            <mxPoint x="160" y="150" as="targetPoint" />
          </mxGeometry>
        </mxCell>
        <mxCell id="m3oFk083VExMzyAJb2_2-13" value="" style="endArrow=classic;html=1;rounded=0;entryX=0;entryY=0.625;entryDx=0;entryDy=0;entryPerimeter=0;" edge="1" parent="1">
          <mxGeometry width="50" height="50" relative="1" as="geometry">
            <mxPoint x="90" y="130" as="sourcePoint" />
            <mxPoint x="170" y="130" as="targetPoint" />
          </mxGeometry>
        </mxCell>
        <mxCell id="m3oFk083VExMzyAJb2_2-14" value="Add/edit Item category" style="text;html=1;align=center;verticalAlign=middle;resizable=0;points=[];autosize=1;strokeColor=none;fillColor=none;" vertex="1" parent="1">
          <mxGeometry x="30" y="105" width="140" height="30" as="geometry" />
        </mxCell>
        <mxCell id="m3oFk083VExMzyAJb2_2-15" value="&amp;nbsp; &amp;nbsp; &amp;nbsp; &amp;nbsp; &amp;nbsp;Add/Edit Category Record" style="text;html=1;align=center;verticalAlign=middle;resizable=0;points=[];autosize=1;strokeColor=none;fillColor=none;" vertex="1" parent="1">
          <mxGeometry x="-25" y="125" width="190" height="30" as="geometry" />
        </mxCell>
        <mxCell id="m3oFk083VExMzyAJb2_2-16" value="Add/Edit Supplier Record" style="text;html=1;align=center;verticalAlign=middle;resizable=0;points=[];autosize=1;strokeColor=none;fillColor=none;" vertex="1" parent="1">
          <mxGeometry x="5" y="145" width="160" height="30" as="geometry" />
        </mxCell>
        <mxCell id="m3oFk083VExMzyAJb2_2-17" value="" style="endArrow=classic;html=1;rounded=0;" edge="1" parent="1">
          <mxGeometry width="50" height="50" relative="1" as="geometry">
            <mxPoint x="60" y="250" as="sourcePoint" />
            <mxPoint x="190" y="200" as="targetPoint" />
          </mxGeometry>
        </mxCell>
        <mxCell id="m3oFk083VExMzyAJb2_2-20" value="Invoice Detalis" style="text;html=1;align=center;verticalAlign=middle;resizable=0;points=[];autosize=1;strokeColor=none;fillColor=none;" vertex="1" parent="1">
          <mxGeometry x="290" y="280" width="100" height="30" as="geometry" />
        </mxCell>
        <mxCell id="m3oFk083VExMzyAJb2_2-21" value="" style="endArrow=classic;html=1;rounded=0;" edge="1" parent="1">
          <mxGeometry width="50" height="50" relative="1" as="geometry">
            <mxPoint x="300" y="390" as="sourcePoint" />
            <mxPoint x="390" y="390" as="targetPoint" />
          </mxGeometry>
        </mxCell>
        <mxCell id="m3oFk083VExMzyAJb2_2-22" value="" style="endArrow=classic;html=1;rounded=0;" edge="1" parent="1">
          <mxGeometry width="50" height="50" relative="1" as="geometry">
            <mxPoint x="300" y="430" as="sourcePoint" />
            <mxPoint x="390" y="430" as="targetPoint" />
          </mxGeometry>
        </mxCell>
        <mxCell id="m3oFk083VExMzyAJb2_2-23" value="" style="endArrow=classic;html=1;rounded=0;" edge="1" parent="1">
          <mxGeometry width="50" height="50" relative="1" as="geometry">
            <mxPoint x="460" y="390" as="sourcePoint" />
            <mxPoint x="550" y="390" as="targetPoint" />
          </mxGeometry>
        </mxCell>
        <mxCell id="m3oFk083VExMzyAJb2_2-24" value="" style="endArrow=classic;html=1;rounded=0;" edge="1" parent="1">
          <mxGeometry width="50" height="50" relative="1" as="geometry">
            <mxPoint x="460" y="430" as="sourcePoint" />
            <mxPoint x="550" y="430" as="targetPoint" />
          </mxGeometry>
        </mxCell>
        <mxCell id="m3oFk083VExMzyAJb2_2-25" value="Report Request" style="text;html=1;align=center;verticalAlign=middle;resizable=0;points=[];autosize=1;strokeColor=none;fillColor=none;" vertex="1" parent="1">
          <mxGeometry x="275" y="365" width="110" height="30" as="geometry" />
        </mxCell>
        <mxCell id="m3oFk083VExMzyAJb2_2-26" value="Order Tracking No." style="text;html=1;align=center;verticalAlign=middle;resizable=0;points=[];autosize=1;strokeColor=none;fillColor=none;" vertex="1" parent="1">
          <mxGeometry x="275" y="395" width="120" height="30" as="geometry" />
        </mxCell>
        <mxCell id="m3oFk083VExMzyAJb2_2-27" value="Item Invoice&amp;nbsp;" style="text;html=1;align=center;verticalAlign=middle;resizable=0;points=[];autosize=1;strokeColor=none;fillColor=none;" vertex="1" parent="1">
          <mxGeometry x="450" y="365" width="90" height="30" as="geometry" />
        </mxCell>
        <mxCell id="m3oFk083VExMzyAJb2_2-28" value="Order tracking Details" style="text;html=1;align=center;verticalAlign=middle;resizable=0;points=[];autosize=1;strokeColor=none;fillColor=none;" vertex="1" parent="1">
          <mxGeometry x="460" y="405" width="140" height="30" as="geometry" />
        </mxCell>
        <mxCell id="m3oFk083VExMzyAJb2_2-31" value="Order details" style="text;html=1;align=center;verticalAlign=middle;resizable=0;points=[];autosize=1;strokeColor=none;fillColor=none;" vertex="1" parent="1">
          <mxGeometry x="385" y="205" width="90" height="30" as="geometry" />
        </mxCell>
        <mxCell id="m3oFk083VExMzyAJb2_2-40" style="edgeStyle=orthogonalEdgeStyle;rounded=0;orthogonalLoop=1;jettySize=auto;html=1;entryX=0.062;entryY=0.296;entryDx=0;entryDy=0;entryPerimeter=0;" edge="1" parent="1" source="m3oFk083VExMzyAJb2_2-33" target="m3oFk083VExMzyAJb2_2-6">
          <mxGeometry relative="1" as="geometry">
            <Array as="points">
              <mxPoint x="520" y="170" />
              <mxPoint x="520" y="214" />
            </Array>
          </mxGeometry>
        </mxCell>
        <mxCell id="m3oFk083VExMzyAJb2_2-33" value="Update Track Status" style="text;html=1;align=center;verticalAlign=middle;resizable=0;points=[];autosize=1;strokeColor=none;fillColor=none;" vertex="1" parent="1">
          <mxGeometry x="365" y="155" width="130" height="30" as="geometry" />
        </mxCell>
        <mxCell id="m3oFk083VExMzyAJb2_2-37" value="Order Tracking&amp;nbsp; &lt;br&gt;status" style="text;html=1;align=center;verticalAlign=middle;resizable=0;points=[];autosize=1;strokeColor=none;fillColor=none;" vertex="1" parent="1">
          <mxGeometry x="590" y="190" width="110" height="40" as="geometry" />
        </mxCell>
        <mxCell id="m3oFk083VExMzyAJb2_2-38" value="" style="endArrow=none;dashed=1;html=1;rounded=0;exitX=1;exitY=0.5;exitDx=0;exitDy=0;entryX=0.612;entryY=-0.03;entryDx=0;entryDy=0;entryPerimeter=0;" edge="1" parent="1" source="m3oFk083VExMzyAJb2_2-3" target="m3oFk083VExMzyAJb2_2-6">
          <mxGeometry width="50" height="50" relative="1" as="geometry">
            <mxPoint x="450" y="135" as="sourcePoint" />
            <mxPoint x="520" y="140" as="targetPoint" />
          </mxGeometry>
        </mxCell>
        <mxCell id="m3oFk083VExMzyAJb2_2-41" value="Permission for update&amp;nbsp;&lt;br&gt;Tracking details" style="text;html=1;align=center;verticalAlign=middle;resizable=0;points=[];autosize=1;strokeColor=none;fillColor=none;" vertex="1" parent="1">
          <mxGeometry x="475" y="95" width="140" height="40" as="geometry" />
        </mxCell>
        <mxCell id="m3oFk083VExMzyAJb2_2-42" value="" style="endArrow=none;dashed=1;html=1;dashPattern=1 3;strokeWidth=2;rounded=0;exitX=1.011;exitY=0.649;exitDx=0;exitDy=0;exitPerimeter=0;" edge="1" parent="1" source="m3oFk083VExMzyAJb2_2-2">
          <mxGeometry width="50" height="50" relative="1" as="geometry">
            <mxPoint x="315" y="145" as="sourcePoint" />
            <mxPoint x="365" y="95" as="targetPoint" />
          </mxGeometry>
        </mxCell>
        <mxCell id="m3oFk083VExMzyAJb2_2-43" value="Permission" style="text;html=1;align=center;verticalAlign=middle;resizable=0;points=[];autosize=1;strokeColor=none;fillColor=none;" vertex="1" parent="1">
          <mxGeometry x="230" y="105" width="80" height="30" as="geometry" />
        </mxCell>
        <mxCell id="m3oFk083VExMzyAJb2_2-44" value="Add/Edit city &amp;amp;&lt;br&gt;&amp;nbsp;state record" style="text;html=1;align=center;verticalAlign=middle;resizable=0;points=[];autosize=1;strokeColor=none;fillColor=none;" vertex="1" parent="1">
          <mxGeometry x="50" y="190" width="100" height="40" as="geometry" />
        </mxCell>
        <mxCell id="m3oFk083VExMzyAJb2_2-46" value="Item Details" style="text;html=1;align=center;verticalAlign=middle;resizable=0;points=[];autosize=1;strokeColor=none;fillColor=none;" vertex="1" parent="1">
          <mxGeometry x="200" y="205" width="90" height="30" as="geometry" />
        </mxCell>
        <mxCell id="m3oFk083VExMzyAJb2_2-48" value="" style="endArrow=classic;html=1;rounded=0;" edge="1" parent="1">
          <mxGeometry width="50" height="50" relative="1" as="geometry">
            <mxPoint x="100" y="300" as="sourcePoint" />
            <mxPoint x="210" y="300" as="targetPoint" />
          </mxGeometry>
        </mxCell>
        <mxCell id="m3oFk083VExMzyAJb2_2-49" value="Item Purchase Requset" style="text;html=1;align=center;verticalAlign=middle;resizable=0;points=[];autosize=1;strokeColor=none;fillColor=none;" vertex="1" parent="1">
          <mxGeometry x="70" y="270" width="150" height="30" as="geometry" />
        </mxCell>
        <mxCell id="m3oFk083VExMzyAJb2_2-50" value="" style="endArrow=classic;html=1;rounded=0;" edge="1" parent="1">
          <mxGeometry width="50" height="50" relative="1" as="geometry">
            <mxPoint x="100" y="330" as="sourcePoint" />
            <mxPoint x="210" y="330" as="targetPoint" />
          </mxGeometry>
        </mxCell>
        <mxCell id="m3oFk083VExMzyAJb2_2-51" value="Payment" style="text;html=1;align=center;verticalAlign=middle;resizable=0;points=[];autosize=1;strokeColor=none;fillColor=none;" vertex="1" parent="1">
          <mxGeometry x="110" y="300" width="70" height="30" as="geometry" />
        </mxCell>
        <mxCell id="m3oFk083VExMzyAJb2_2-53" value="Customer List" style="text;html=1;align=center;verticalAlign=middle;resizable=0;points=[];autosize=1;strokeColor=none;fillColor=none;" vertex="1" parent="1">
          <mxGeometry x="430" y="30" width="100" height="30" as="geometry" />
        </mxCell>
        <mxCell id="m3oFk083VExMzyAJb2_2-54" value="" style="endArrow=classic;html=1;rounded=0;entryX=0;entryY=0;entryDx=0;entryDy=0;exitX=0.939;exitY=-0.037;exitDx=0;exitDy=0;exitPerimeter=0;" edge="1" parent="1" source="m3oFk083VExMzyAJb2_2-56" target="m3oFk083VExMzyAJb2_2-3">
          <mxGeometry width="50" height="50" relative="1" as="geometry">
            <mxPoint x="305" y="65" as="sourcePoint" />
            <mxPoint x="355" y="15" as="targetPoint" />
          </mxGeometry>
        </mxCell>
        <mxCell id="m3oFk083VExMzyAJb2_2-56" value="New Customer" style="text;html=1;align=center;verticalAlign=middle;resizable=0;points=[];autosize=1;strokeColor=none;fillColor=none;" vertex="1" parent="1">
          <mxGeometry x="230" y="-10" width="100" height="30" as="geometry" />
        </mxCell>
        <mxCell id="m3oFk083VExMzyAJb2_2-58" value="" style="endArrow=classic;html=1;rounded=0;entryX=0.5;entryY=0;entryDx=0;entryDy=0;" edge="1" parent="1" target="m3oFk083VExMzyAJb2_2-3">
          <mxGeometry width="50" height="50" relative="1" as="geometry">
            <mxPoint x="370" y="-40" as="sourcePoint" />
            <mxPoint x="400" y="30" as="targetPoint" />
          </mxGeometry>
        </mxCell>
        <mxCell id="m3oFk083VExMzyAJb2_2-59" value="User Name and&lt;br&gt;Password" style="text;html=1;align=center;verticalAlign=middle;resizable=0;points=[];autosize=1;strokeColor=none;fillColor=none;" vertex="1" parent="1">
          <mxGeometry x="370" y="-30" width="110" height="40" as="geometry" />
        </mxCell>
      </root>
    </mxGraphModel>
  </diagram>
</mxfile>
